{
  "accessors": [
    {
      "bufferView": 2,
      "componentType": 5126,
      "count": 9228,
      "max": [
        6.619523048400879,
        6.561587333679199,
        6.764461517333984
      ],
      "min": [
        -6.616703510284424,
        -6.9008402824401855,
        -6.764461517333984
      ],
      "type": "VEC3"
    },
    {
      "bufferView": 0,
      "componentType": 5125,
      "count": 18180,
      "type": "SCALAR"
    },
    {
      "bufferView": 2,
      "byteOffset": 110736,
      "componentType": 5126,
      "count": 45127,
      "max": [
        6.93422269821167,
        4.225605487823486,
        6.9322710037231445
      ],
      "min": [
        -6.930307388305664,
        -7.503775596618652,
        -6.9322710037231445
      ],
      "type": "VEC3"
    },
    {
      "bufferView": 0,
      "byteOffset": 72720,
      "componentType": 5125,
      "count": 88938,
      "type": "SCALAR"
    },
    {
      "bufferView": 2,
      "byteOffset": 652260,
      "componentType": 5126,
      "count": 26383,
      "max": [
        41.66469192504883,
        4.447143077850342,
        21.553457260131836
      ],
      "min": [
        -12.537796020507813,
        -41.29418182373047,
        -21.553457260131836
      ],
      "type": "VEC3"
    },
    {
      "bufferView": 0,
      "byteOffset": 428472,
      "componentType": 5125,
      "count": 52098,
      "type": "SCALAR"
    },
    {
      "bufferView": 2,
      "byteOffset": 968856,
      "componentType": 5126,
      "count": 25982,
      "max": [
        6.627216339111328,
        1.1686084270477295,
        6.618270397186279
      ],
      "min": [
        -6.617642402648926,
        -1.21808660030365,
        -6.618270397186279
      ],
      "type": "VEC3"
    },
    {
      "bufferView": 0,
      "byteOffset": 636864,
      "componentType": 5125,
      "count": 51176,
      "type": "SCALAR"
    },
    {
      "bufferView": 2,
      "byteOffset": 1280640,
      "componentType": 5126,
      "count": 65533,
      "max": [
        1.303592324256897,
        1.327219843864441,
        1.2222672700881958
      ],
      "min": [
        -1.2833534479141235,
        -1.1090775728225708,
        -1.2893272638320923
      ],
      "type": "VEC3"
    },
    {
      "bufferView": 0,
      "byteOffset": 841568,
      "componentType": 5125,
      "count": 138014,
      "type": "SCALAR"
    },
    {
      "bufferView": 2,
      "byteOffset": 2067036,
      "componentType": 5126,
      "count": 59268,
      "max": [
        1.2949862480163574,
        1.2854784727096558,
        1.2222672700881958
      ],
      "min": [
        -1.299586296081543,
        -1.1296472549438477,
        -1.289168357849121
      ],
      "type": "VEC3"
    },
    {
      "bufferView": 0,
      "byteOffset": 1393624,
      "componentType": 5125,
      "count": 115146,
      "type": "SCALAR"
    },
    {
      "bufferView": 2,
      "byteOffset": 2778252,
      "componentType": 5126,
      "count": 2143,
      "max": [
        1.0000005960464478,
        1.0,
        1.000001072883606
      ],
      "min": [
        -1.000000238418579,
        -1.0,
        -1.0
      ],
      "type": "VEC3"
    },
    {
      "bufferView": 2,
      "byteOffset": 2803968,
      "componentType": 5126,
      "count": 2143,
      "max": [
        1.0,
        1.0,
        1.0
      ],
      "min": [
        -1.0,
        -1.0,
        -1.0
      ],
      "type": "VEC3"
    },
    {
      "bufferView": 1,
      "componentType": 5126,
      "count": 2143,
      "max": [
        1.0000011920928955,
        1.0
      ],
      "min": [
        0.0,
        0.0
      ],
      "type": "VEC2"
    },
    {
      "bufferView": 0,
      "byteOffset": 1854208,
      "componentType": 5125,
      "count": 11904,
      "type": "SCALAR"
    }
  ],
  "asset": {
    "extras": {
      "author": "Loïc Norgeot (https://sketchfab.com/norgeotloic)",
      "license": "CC-BY-4.0 (http://creativecommons.org/licenses/by/4.0/)",
      "source": "https://sketchfab.com/3d-models/of-planes-and-satellites-db8f1c8cba3b464993e216acbf4a69b9",
      "title": "Of Planes and Satellites"
    },
    "generator": "Sketchfab-12.63.0",
    "version": "2.0"
  },
  "bufferViews": [
    {
      "buffer": 0,
      "byteLength": 1901824,
      "name": "floatBufferViews",
      "target": 34963
    },
    {
      "buffer": 0,
      "byteLength": 17144,
      "byteOffset": 1901824,
      "byteStride": 8,
      "name": "floatBufferViews",
      "target": 34962
    },
    {
      "buffer": 0,
      "byteLength": 2829684,
      "byteOffset": 1918968,
      "byteStride": 12,
      "name": "floatBufferViews",
      "target": 34962
    }
  ],
  "buffers": [
    {
      "byteLength": 4748652,
      "uri": "scene.bin"
    }
  ],
  "extensionsUsed": [
    "KHR_materials_clearcoat"
  ],
  "images": [
    {
      "uri": "textures/earth_emissive.png"
    },
    {
      "uri": "textures/earth_clearcoat.png"
    }
  ],
  "materials": [
    {
      "alphaMode": "BLEND",
      "emissiveFactor": [
        1.0,
        0.28863290822882814,
        0.0
      ],
      "name": "sat_gps_material",
      "pbrMetallicRoughness": {
        "baseColorFactor": [
          1.0,
          0.0,
          0.0,
          0.1602515243902439
        ]
      }
    },
    {
      "alphaMode": "BLEND",
      "emissiveFactor": [
        0.0,
        0.0,
        1.0
      ],
      "name": "sat_comms_material",
      "pbrMetallicRoughness": {
        "baseColorFactor": [
          0.0,
          0.0,
          1.0,
          0.020007622
        ]
      }
    },
    {
      "alphaMode": "BLEND",
      "emissiveFactor": [
        0.0,
        0.44397865853658536,
        0.004269183203380357
      ],
      "name": "sat_tech_material",
      "pbrMetallicRoughness": {
        "baseColorFactor": [
          0.0,
          1.0,
          0.0,
          0.31878810975609756
        ]
      }
    },
    {
      "alphaMode": "BLEND",
      "emissiveFactor": [
        0.0,
        0.27391689826985116,
        1.0
      ],
      "name": "sat_earth_material",
      "pbrMetallicRoughness": {
        "baseColorFactor": [
          1.0,
          1.0,
          1.0,
          0.05659298780487805
        ]
      }
    },
    {
      "alphaMode": "BLEND",
      "emissiveFactor": [
        1.0,
        0.28863290822882814,
        0.0
      ],
      "name": "routes_material",
      "pbrMetallicRoughness": {
        "baseColorFactor": [
          1.0,
          0.0,
          0.0,
          0.0687881098
        ]
      }
    },
    {
      "doubleSided": true,
      "emissiveFactor": [
        1.0,
        1.0,
        1.0
      ],
      "emissiveTexture": {
        "index": 0
      },
      "extensions": {
        "KHR_materials_clearcoat": {
          "clearcoatFactor": 1.0,
          "clearcoatRoughnessFactor": 0.9651295731707317,
          "clearcoatTexture": {
            "index": 1
          }
        }
      },
      "name": "earth",
      "pbrMetallicRoughness": {
        "baseColorFactor": [
          0.0,
          0.0,
          0.0,
          1.0
        ],
        "metallicFactor": 0.0
      }
    }
  ],
  "meshes": [
    {
      "name": "Object_0",
      "primitives": [
        {
          "attributes": {
            "POSITION": 0
          },
          "indices": 1,
          "material": 0,
          "mode": 1
        }
      ]
    },
    {
      "name": "Object_1",
      "primitives": [
        {
          "attributes": {
            "POSITION": 2
          },
          "indices": 3,
          "material": 1,
          "mode": 1
        }
      ]
    },
    {
      "name": "Object_2",
      "primitives": [
        {
          "attributes": {
            "POSITION": 4
          },
          "indices": 5,
          "material": 2,
          "mode": 1
        }
      ]
    },
    {
      "name": "Object_3",
      "primitives": [
        {
          "attributes": {
            "POSITION": 6
          },
          "indices": 7,
          "material": 3,
          "mode": 1
        }
      ]
    },
    {
      "name": "Object_4",
      "primitives": [
        {
          "attributes": {
            "POSITION": 8
          },
          "indices": 9,
          "material": 4,
          "mode": 1
        }
      ]
    },
    {
      "name": "Object_5",
      "primitives": [
        {
          "attributes": {
            "POSITION": 10
          },
          "indices": 11,
          "material": 4,
          "mode": 1
        }
      ]
    },
    {
      "name": "Object_6",
      "primitives": [
        {
          "attributes": {
            "NORMAL": 13,
            "POSITION": 12,
            "TEXCOORD_0": 14
          },
          "indices": 15,
          "material": 5,
          "mode": 4
        }
      ]
    }
  ],
  "nodes": [
    {
      "children": [
        1
      ],
      "matrix": [
        0.03784735128283501,
        0.0,
        0.0,
        0.0,
        0.0,
        8.403800163055976e-18,
        -0.03784735128283501,
        0.0,
        0.0,
        0.03784735128283501,
        8.403800163055976e-18,
        0.0,
        0.0,
        0.0,
        0.0,
        1.0
      ],
      "name": "Sketchfab_model"
    },
    {
      "children": [
        2
      ],
      "name": "root"
    },
    {
      "children": [
        3,
        5,
        7,
        9,
        11,
        14
      ],
      "matrix": [
        1.0,
        0.0,
        0.0,
        0.0,
        0.0,
        2.220446049250313e-16,
        1.0,
        0.0,
        0.0,
        -1.0,
        2.220446049250313e-16,
        0.0,
        0.0,
        0.0,
        0.0,
        1.0
      ],
      "name": "GLTF_SceneRootNode"
    },
    {
      "children": [
        4
      ],
      "name": "orbits_0"
    },
    {
      "mesh": 0,
      "name": "Object_4"
    },
    {
      "children": [
        6
      ],
      "name": "orbits_1"
    },
    {
      "mesh": 1,
      "name": "Object_6"
    },
    {
      "children": [
        8
      ],
      "name": "orbits_2"
    },
    {
      "mesh": 2,
      "name": "Object_8"
    },
    {
      "children": [
        10
      ],
      "name": "orbits_3"
    },
    {
      "mesh": 3,
      "name": "Object_10"
    },
    {
      "children": [
        12,
        13
      ],
      "name": "airlines_4"
    },
    {
      "mesh": 4,
      "name": "Object_12"
    },
    {
      "mesh": 5,
      "name": "Object_13"
    },
    {
      "children": [
        15
      ],
      "name": "Sphere_5"
    },
    {
      "mesh": 6,
      "name": "Object_15"
    }
  ],
  "samplers": [
    {
      "magFilter": 9729,
      "minFilter": 9987,
      "wrapS": 10497,
      "wrapT": 10497
    }
  ],
  "scene": 0,
  "scenes": [
    {
      "name": "Sketchfab_Scene",
      "nodes": [
        0
      ]
    }
  ],
  "textures": [
    {
      "sampler": 0,
      "source": 0
    },
    {
      "sampler": 0,
      "source": 1
    }
  ]
}
